<svg width="24" height="24" viewBox="0 0 24 24" xmlns="http://www.w3.org/2000/svg" xmlns:sketch="http://www.bohemiancoding.com/sketch/ns" shape-rendering="geometricPrecision"><title>fb-logo</title><path d="M18.749 21h-3.37v-6.616h2.421l.605-2.421h-3.026v-1.816c0-.778.714-1.211 1.816-1.211h1.211v-2.241c-.243-.033-1.188-.17-2.159-.17-2.027 0-3.288 1.321-3.288 3.622v1.816h-2.421v2.421h2.421v6.616h-7.709c-1.242 0-2.25-1.008-2.25-2.25v-13.5c0-1.242 1.007-2.25 2.25-2.25h13.5c1.243 0 2.25 1.007 2.25 2.25v13.5c-.001 1.243-1.008 2.25-2.251 2.25z" sketch:type="MSShapeGroup" fill="#fff"/></svg>