<svg width="24" height="24" viewBox="0 0 24 24" xmlns="http://www.w3.org/2000/svg" xmlns:sketch="http://www.bohemiancoding.com/sketch/ns" shape-rendering="geometricPrecision"><title>fs_enter</title><g sketch:type="MSLayerGroup" fill="none"><path sketch:type="MSShapeGroup" d="M0 0h24v24h-24z"/><path d="M5.662 15.104l-1.878-1.877c-.433-.433-.784-.287-.784.335v6.319c0 .618.497 1.119 1.119 1.119h6.323c.618 0 .771-.348.335-.784l-1.878-1.877 2.737-2.735c.431-.431.434-1.126-.003-1.563l-1.67-1.669c-.433-.433-1.134-.433-1.564-.003l-2.737 2.735zm9.438-9.443l-2.736 2.735c-.431.431-.434 1.126.003 1.563l1.67 1.669c.433.433 1.134.433 1.564.003l2.736-2.735 1.878 1.877c.433.433.784.287.784-.335v-6.32c0-.618-.497-1.119-1.119-1.119h-6.323c-.618 0-.771.348-.335.784l1.878 1.877z" fill="#fff" sketch:type="MSShapeGroup"/></g></svg>