<?xml version="1.0" encoding="UTF-8" standalone="no"?>
<svg width="24px" height="24px" viewBox="0 0 24 24" version="1.1" xmlns="http://www.w3.org/2000/svg" xmlns:xlink="http://www.w3.org/1999/xlink" xmlns:sketch="http://www.bohemiancoding.com/sketch/ns" shape-rendering="geometricPrecision">
    <title>gear</title>
    <defs>
        <path d="M8.726027,5.49914336 C9.24569202,5.23668184 9.80120321,5.03466765 10.3832773,4.90236201 C10.5318917,4.20974842 10.7094966,3.39527866 10.8554007,2.76470885 C10.9585584,2.3193361 11.2098634,2.0005 11.598409,2.0005 L12.4223075,2.0005 C12.8167609,2.0005 13.0903333,2.3193361 13.1875834,2.74520678 C13.3321223,3.37807149 13.5118531,4.20758051 13.6620998,4.91064359 C14.255225,5.04865471 14.8204657,5.25912282 15.3479334,5.53218802 C15.9128652,5.09587693 16.5798276,4.58421529 17.1025782,4.19334854 C17.4711286,3.91805194 17.8714896,3.83324063 18.1691474,4.08041798 C18.359103,4.23824865 18.6090447,4.44596832 18.7999092,4.60425253 C19.1016569,4.85460463 19.1039291,5.27321873 18.9012491,5.66099236 C18.5956569,6.24595455 18.186098,7.00884815 17.840406,7.64843426 C18.1882884,8.11472412 18.4813926,8.62413621 18.7101938,9.1671735 C19.4334067,9.19230849 20.2924243,9.22492682 20.9566783,9.25844317 C21.4183886,9.28202706 21.7796679,9.47160528 21.8469249,9.84985464 C21.8896422,10.091136 21.9459927,10.4095186 21.9896189,10.6512535 C22.0573303,11.0353988 21.7869389,11.3574097 21.3788524,11.5256717 C20.7618056,11.7804412 19.9475594,12.1059806 19.2649097,12.3766965 C19.23259,12.9720628 19.1283416,13.548347 18.9606989,14.0970499 C19.496292,14.574318 20.128508,15.1414735 20.6126677,15.5870902 C20.9507706,15.8977627 21.1043711,16.2728373 20.9094166,16.6052795 C20.7849002,16.8175345 20.621302,17.0973665 20.4967857,17.3096215 C20.2991045,17.6470526 19.8828381,17.7218861 19.460664,17.5912676 C18.8363189,17.3983868 18.0234087,17.1375044 17.3340515,16.914145 C16.9217568,17.3572918 16.4546568,17.7489432 15.9435125,18.0783539 C16.0412079,18.7723417 16.1524728,19.5820802 16.231418,20.2140687 C16.2877685,20.6671516 16.1614344,21.052204 15.7956107,21.1828225 C15.5624833,21.2662731 15.2552823,21.3764825 15.0212461,21.4603867 C14.6504236,21.5928194 14.2832366,21.3850997 14.0451104,21.0172817 C13.6991457,20.4832815 13.2570035,19.7839021 12.8792372,19.1824675 C12.5925132,19.2167766 12.3006541,19.23443 12.0046778,19.23443 C11.6725371,19.23443 11.3455862,19.2121995 11.0252546,19.1691471 C10.650594,19.7593295 10.2132833,20.4431009 9.86517736,20.9728351 C9.61387241,21.3556198 9.26622631,21.5701425 8.90131152,21.4381634 C8.66818414,21.3533521 8.36143759,21.2426893 8.12785577,21.1578779 C7.75794215,21.0236312 7.61161268,20.6313222 7.6684176,20.1981949 C7.75253705,19.55927 7.87145474,18.7265881 7.9746061,18.0185851 C7.47324136,17.684746 7.01577727,17.2903943 6.61269503,16.8459912 C5.92988539,17.0637331 5.12437621,17.3177843 4.49688547,17.5073634 C4.05471599,17.6407031 3.6493561,17.584011 3.45576494,17.2506618 C3.33261188,17.0379532 3.1699226,16.7581212 3.04586066,16.5449591 C2.84954287,16.206621 2.9931457,15.8134049 3.31852426,15.5176992 C3.81304515,15.0687117 4.46981906,14.4857025 5.01980518,14.0002008 C4.86214199,13.4569422 4.76639071,12.8874429 4.74067854,12.299813 C4.06570252,12.0284349 3.25943624,11.7012447 2.64050077,11.4408604 C2.21514555,11.2626206 1.94157307,10.9614724 2.01064785,10.583223 C2.05427403,10.3419416 2.11198782,10.0240126 2.155614,9.78182418 C2.22559766,9.39813238 2.59142132,9.18859856 3.03313636,9.16864296 C3.70691902,9.13917216 4.59416002,9.11000977 5.33321199,9.08769578 C5.56572951,8.55383807 5.86069791,8.05333343 6.20890932,7.5953705 C5.86999755,6.96129032 5.46881124,6.20473716 5.16627461,5.61609226 C4.95677807,5.20881656 4.94314489,4.80426209 5.24171154,4.55844535 C5.43257606,4.40152175 5.68342658,4.19470915 5.87474554,4.03733202 C6.17785657,3.78743345 6.59457745,3.85954574 6.94540462,4.12531808 C7.47043202,4.52317836 8.15237641,5.05186575 8.726027,5.49914336 L8.726027,5.49914336 Z M12.0046778,7.89601979 C14.2632413,7.89601979 16.0946318,9.72377152 16.0946318,11.9778475 C16.0946318,14.2319234 14.2632413,16.0596752 12.0046778,16.0596752 C9.74565981,16.0596752 7.91472372,14.2319234 7.91472372,11.9778475 C7.91472372,9.72377152 9.74565981,7.89601979 12.0046778,7.89601979 L12.0046778,7.89601979 Z" id="path-1"></path>
    </defs>
    <g id="control_dock" stroke="none" stroke-width="1" fill="none" fill-rule="evenodd" sketch:type="MSPage">
        <g id="cog" sketch:type="MSArtboardGroup">
            <g sketch:type="MSLayerGroup">
                <rect id="frame" sketch:type="MSShapeGroup" x="0" y="0" width="24" height="24"></rect>
                <mask id="mask-2" sketch:name="Clip 2" fill="white">
                    <use xlink:href="#path-1"></use>
                </mask>
                <use id="Clip-2" fill="#FFFFFF" sketch:type="MSShapeGroup" xlink:href="#path-1"></use>
            </g>
        </g>
    </g>
</svg>