<svg width="24" height="24" viewBox="0 0 24 24" xmlns="http://www.w3.org/2000/svg" xmlns:sketch="http://www.bohemiancoding.com/sketch/ns" shape-rendering="geometricPrecision"><title>replay</title><path d="M6.915 13h.085c0 2.761 2.239 5 5 5s5-2.239 5-5-2.239-5-5-5v-3c4.418 0 8 3.582 8 8s-3.582 8-8 8c-4.122 0-7.517-3.118-7.953-7.125-.031-.12-.047-.246-.047-.375l.007-.151-.007-.349h.085c.206-.583.762-1 1.415-1s1.209.417 1.415 1zm-1.07-6.952c-.466.299-.468.784 0 1.086l5.311 3.42c.466.3.844.097.844-.454v-7.005c0-.551-.376-.756-.844-.456l-5.311 3.409z" sketch:type="MSShapeGroup" fill="#fff"/></svg>