<svg width="24" height="24" viewBox="0 0 24 24" xmlns="http://www.w3.org/2000/svg" xmlns:sketch="http://www.bohemiancoding.com/sketch/ns" shape-rendering="geometricPrecision"><title>sound</title><path d="M18.254 21.278l-.046.057-.099.081-.071.067-.008-.008c-.397.252-.944.228-1.287-.115-.348-.348-.352-.898-.087-1.296l-.012-.013.052-.048.072-.108.215-.153c2.129-1.895 3.48-4.655 3.48-7.758 0-3.151-1.392-5.95-3.578-7.847l-.118-.095-.02-.031-.104-.094.024-.025c-.278-.399-.278-.96.075-1.314.398-.398 1.07-.369 1.464.024l.132.169c2.495 2.276 4.092 5.551 4.092 9.212.002 3.705-1.63 7.016-4.176 9.295zm-2.928-2.562l-.005-.005c-.392.275-.953.261-1.301-.087-.39-.39-.362-1.05.024-1.436.108-.108.226-.172.349-.206 1.403-1.211 2.289-2.998 2.289-4.998 0-2.028-.911-3.835-2.348-5.047-.102-.038-.199-.097-.289-.187l-.071-.106-.023-.018.006-.006c-.285-.392-.289-.954.063-1.306.39-.39 1.05-.362 1.437.024l.08.099c1.863 1.553 3.075 3.903 3.075 6.548 0 2.746-1.299 5.184-3.286 6.731zm-2.75-2.766l-.028-.028c-.382.237-.898.219-1.218-.117-.314-.33-.311-.835-.068-1.203l-.043-.044.114-.056.055-.079c.131-.124.276-.186.424-.204.682-.505 1.126-1.318 1.126-2.234 0-.941-.469-1.774-1.184-2.275-.128-.026-.252-.086-.365-.194l-.023-.032-.147-.072.056-.057c-.256-.37-.264-.886.055-1.221.325-.342.853-.355 1.236-.105l.009-.009c1.318.812 2.216 2.283 2.216 3.966 0 1.681-.897 3.151-2.215 3.964z" sketch:type="MSShapeGroup" fill="#fff"/></svg>